<mxfile host="app.diagrams.net" modified="2024-04-22T15:31:34.521Z" agent="Mozilla/5.0 (Macintosh; Intel Mac OS X 10_15_7) AppleWebKit/537.36 (KHTML, like Gecko) Chrome/123.0.0.0 Safari/537.36" etag="J80af4Nb3thptQ0FMZt3" version="24.2.5" type="device">
  <diagram name="第 1 页" id="aF8JWY1AYvSVTpFHb0oq">
    <mxGraphModel dx="874" dy="577" grid="1" gridSize="10" guides="1" tooltips="1" connect="1" arrows="1" fold="1" page="1" pageScale="1" pageWidth="827" pageHeight="1169" math="0" shadow="0">
      <root>
        <mxCell id="0" />
        <mxCell id="1" parent="0" />
        <mxCell id="ST181Phhmrz7rn5E3o9M-1" value="&lt;font style=&quot;font-size: 18px;&quot;&gt;Price of products&lt;/font&gt;" style="ellipse;whiteSpace=wrap;html=1;aspect=fixed;" parent="1" vertex="1">
          <mxGeometry x="340" y="390" width="110" height="110" as="geometry" />
        </mxCell>
        <mxCell id="ST181Phhmrz7rn5E3o9M-2" value="&lt;font style=&quot;font-size: 18px;&quot;&gt;Cost of Living Index&lt;/font&gt;" style="ellipse;whiteSpace=wrap;html=1;aspect=fixed;" parent="1" vertex="1">
          <mxGeometry x="440" y="220" width="110" height="110" as="geometry" />
        </mxCell>
        <mxCell id="ST181Phhmrz7rn5E3o9M-3" value="&lt;font style=&quot;font-size: 14px;&quot;&gt;GNI and other macroeconomic data&lt;/font&gt;" style="ellipse;whiteSpace=wrap;html=1;aspect=fixed;" parent="1" vertex="1">
          <mxGeometry x="240" y="220" width="110" height="110" as="geometry" />
        </mxCell>
        <mxCell id="ST181Phhmrz7rn5E3o9M-7" value="" style="endArrow=classic;html=1;rounded=0;exitX=1;exitY=0.5;exitDx=0;exitDy=0;strokeWidth=4;" parent="1" source="ST181Phhmrz7rn5E3o9M-3" target="ST181Phhmrz7rn5E3o9M-2" edge="1">
          <mxGeometry width="50" height="50" relative="1" as="geometry">
            <mxPoint x="400" y="360" as="sourcePoint" />
            <mxPoint x="450" y="310" as="targetPoint" />
          </mxGeometry>
        </mxCell>
        <mxCell id="ST181Phhmrz7rn5E3o9M-8" value="" style="endArrow=classic;html=1;rounded=0;entryX=0.301;entryY=0.942;entryDx=0;entryDy=0;strokeWidth=2;curved=0;entryPerimeter=0;exitX=1;exitY=0;exitDx=0;exitDy=0;" parent="1" source="ST181Phhmrz7rn5E3o9M-1" target="ST181Phhmrz7rn5E3o9M-2" edge="1">
          <mxGeometry width="50" height="50" relative="1" as="geometry">
            <mxPoint x="400" y="360" as="sourcePoint" />
            <mxPoint x="450" y="310" as="targetPoint" />
          </mxGeometry>
        </mxCell>
        <mxCell id="M_Wr85ciQZTdv7RWEAj_-1" value="" style="endArrow=classic;html=1;rounded=0;exitX=0;exitY=0;exitDx=0;exitDy=0;entryX=0.699;entryY=0.961;entryDx=0;entryDy=0;strokeWidth=2;entryPerimeter=0;" edge="1" parent="1" source="ST181Phhmrz7rn5E3o9M-1" target="ST181Phhmrz7rn5E3o9M-3">
          <mxGeometry width="50" height="50" relative="1" as="geometry">
            <mxPoint x="290" y="370" as="sourcePoint" />
            <mxPoint x="340" y="320" as="targetPoint" />
          </mxGeometry>
        </mxCell>
      </root>
    </mxGraphModel>
  </diagram>
</mxfile>
